<svg width="1057" height="1057" viewBox="0 0 1057 1057" fill="none" xmlns="http://www.w3.org/2000/svg">
  <!-- Синий круглый фон -->
  <circle cx="528.5" cy="528.5" r="528.5" fill="#3465A4"/>

  <!-- Волшебная палочка -->
  <g transform="translate(264,264) scale(0.7)">
    <path d="M683.533 542.1C689.782 548.351 693.293 556.828 693.293 565.667C693.293 574.506 689.782 582.983 683.533 589.233L636.4 636.4C630.149 642.649 621.672 646.159 612.833 646.159C603.994 646.159 595.517 642.649 589.267 636.4L259.267 306.4L353.533 212.1L683.533 542.1ZM94.2998 235.7L71.2998 282.634L94.2998 329.967L46.1338 307.833L0 329.967L22.667 284.367L0 235.7L47.833 259.167L94.2666 235.667L94.2998 235.7ZM141.434 13.8076C150.272 13.8077 158.749 17.3175 165 23.5664L306.434 164.967L212.134 259.233L70.7002 117.833C64.4512 111.582 60.9404 103.105 60.9404 94.2666C60.9405 85.4278 64.4512 76.9511 70.7002 70.7002L117.866 23.5664C124.117 17.3174 132.595 13.8076 141.434 13.8076ZM401.3 46.9336L424.267 94.2666L376.1 72.1338L329.967 94.2666L352.634 48.667L330 0L377.833 23.4668L424.267 0L401.3 46.9336Z" fill="white"/>
  </g>
</svg>

